<svg width="142" height="69" viewBox="0 0 142 69" fill="none" xmlns="http://www.w3.org/2000/svg">
<g clip-path="url(#clip0_5709_22)">
<path fill-rule="evenodd" clip-rule="evenodd" d="M24.5765 8.01559L23.5077 9.06294L24.8343 10.4179L21.8671 13.3331L23.8148 15.3253L26.789 12.4101L28.1156 13.765L29.1843 12.7178L24.5765 8.01559ZM20.7759 12.2857L9.75298 23.0814L13.818 27.2343L24.8343 16.4311L20.7759 12.2857ZM11.1885 24.5683L8.76415 26.9414L9.07188 27.2564L1.54259 34.3469L1.16895 35.7461L9.56988 27.7617L9.97254 28.1718L12.3969 25.8061L11.1885 24.5683Z" fill="#C0C0C0" stroke="#202020" stroke-width="1.875" stroke-linecap="round" stroke-linejoin="round"/>
<path fill-rule="evenodd" clip-rule="evenodd" d="M9.22648 27.1134L1.5425 34.3469L1.16846 35.7485L9.70838 27.6232L9.22648 27.1134Z" fill="#C0C0C0"/>
<path d="M24.8371 16.4345L20.7727 12.2862L9.75216 23.0839L13.8166 27.2322L24.8371 16.4345Z" fill="#3B9EFF" stroke="#202020" stroke-width="0.52882" stroke-linecap="round" stroke-linejoin="round"/>
<path d="M27.7256 11.4908L25.7742 9.49915L21.8638 13.3305L23.8152 15.3222L27.7256 11.4908Z" fill="#3B9EFF" stroke="#202020" stroke-width="0.52882" stroke-linecap="round" stroke-linejoin="round"/>
<path d="M29.1868 12.7143L24.5806 8.01306L23.5073 9.06461L28.1135 13.7659L29.1868 12.7143Z" fill="#3B9EFF" stroke="#202020" stroke-width="0.52882" stroke-linecap="round" stroke-linejoin="round"/>
<path d="M12.3947 25.8028L11.1863 24.5695L8.76484 26.9419L9.97324 28.1753L12.3947 25.8028Z" fill="#FF0000" stroke="#202020" stroke-width="0.52882" stroke-linecap="round" stroke-linejoin="round"/>
<path d="M12.8673 20.411L20.4294 20.3829L13.8517 26.9102L10.0291 23.1415L12.8673 20.411Z" fill="#FF0000"/>
<path fill-rule="evenodd" clip-rule="evenodd" d="M15.4578 25.4561C13.5437 23.5025 13.5779 23.5375 13.5779 23.5375L15.4578 25.4561Z" fill="#3B9EFF"/>
<path d="M15.4578 25.4561C13.5437 23.5025 13.5779 23.5375 13.5779 23.5375" stroke="#202020" stroke-width="0.52882" stroke-linecap="round" stroke-linejoin="round"/>
<path fill-rule="evenodd" clip-rule="evenodd" d="M17.4725 23.4822C15.5584 21.5287 15.5926 21.5636 15.5926 21.5636L17.4725 23.4822Z" fill="#3B9EFF"/>
<path d="M17.4725 23.4822C15.5584 21.5287 15.5926 21.5636 15.5926 21.5636" stroke="#202020" stroke-width="0.52882" stroke-linecap="round" stroke-linejoin="round"/>
<path fill-rule="evenodd" clip-rule="evenodd" d="M19.4869 21.5083L17.6072 19.5897L19.4869 21.5083Z" fill="#3B9EFF"/>
<path d="M19.4869 21.5083L17.6072 19.5897" stroke="#202020" stroke-width="0.52882" stroke-linecap="round" stroke-linejoin="round"/>
<path fill-rule="evenodd" clip-rule="evenodd" d="M21.5015 19.5344C19.5874 17.5808 19.6216 17.6158 19.6216 17.6158L21.5015 19.5344Z" fill="#3B9EFF"/>
<path d="M21.5015 19.5344C19.5874 17.5808 19.6216 17.6158 19.6216 17.6158" stroke="#202020" stroke-width="0.52882" stroke-linecap="round" stroke-linejoin="round"/>
</g>
<g filter="url(#filter0_dd_5709_22)">
<path d="M39.08 28L41.519 15.4H43.031L46.262 23.887L49.475 15.4H50.987L53.435 28H51.527L49.898 19.567L46.883 27.523H45.623L42.617 19.567L40.988 28H39.08ZM58.7745 28.234C57.9465 28.234 57.1905 28.021 56.5065 27.595C55.8285 27.169 55.2855 26.599 54.8775 25.885C54.4755 25.165 54.2745 24.37 54.2745 23.5C54.2745 22.84 54.3915 22.225 54.6255 21.655C54.8595 21.079 55.1805 20.575 55.5885 20.143C56.0025 19.705 56.4825 19.363 57.0285 19.117C57.5745 18.871 58.1565 18.748 58.7745 18.748C59.4645 18.748 60.0975 18.892 60.6735 19.18C61.2495 19.462 61.7415 19.855 62.1495 20.359C62.5575 20.857 62.8575 21.433 63.0495 22.087C63.2415 22.735 63.2985 23.425 63.2205 24.157H56.2815C56.3595 24.571 56.5095 24.946 56.7315 25.282C56.9595 25.612 57.2475 25.873 57.5955 26.065C57.9495 26.257 58.3425 26.356 58.7745 26.362C59.2305 26.362 59.6445 26.248 60.0165 26.02C60.3945 25.792 60.7035 25.477 60.9435 25.075L62.8425 25.516C62.4825 26.314 61.9395 26.968 61.2135 27.478C60.4875 27.982 59.6745 28.234 58.7745 28.234ZM56.2185 22.726H61.3305C61.2705 22.294 61.1175 21.904 60.8715 21.556C60.6315 21.202 60.3285 20.923 59.9625 20.719C59.6025 20.509 59.2065 20.404 58.7745 20.404C58.3485 20.404 57.9525 20.506 57.5865 20.71C57.2265 20.914 56.9265 21.193 56.6865 21.547C56.4525 21.895 56.2965 22.288 56.2185 22.726ZM69.5003 20.872H67.6103L67.6013 28H65.7293L65.7383 20.872H64.3073V19H65.7383L65.7293 16.174H67.6013L67.6103 19H69.5003V20.872ZM71.2016 28V19H73.0736V19.954C73.3856 19.582 73.7696 19.288 74.2256 19.072C74.6816 18.856 75.1736 18.748 75.7016 18.748C76.0376 18.748 76.3706 18.793 76.7006 18.883L75.9536 20.773C75.7196 20.683 75.4856 20.638 75.2516 20.638C74.8556 20.638 74.4926 20.737 74.1626 20.935C73.8326 21.127 73.5686 21.388 73.3706 21.718C73.1726 22.048 73.0736 22.414 73.0736 22.816V28H71.2016ZM81.3688 28.234C80.5408 28.234 79.7848 28.021 79.1008 27.595C78.4228 27.169 77.8798 26.599 77.4718 25.885C77.0698 25.165 76.8688 24.37 76.8688 23.5C76.8688 22.84 76.9858 22.225 77.2198 21.655C77.4538 21.079 77.7748 20.575 78.1828 20.143C78.5968 19.705 79.0768 19.363 79.6228 19.117C80.1688 18.871 80.7508 18.748 81.3688 18.748C82.1968 18.748 82.9498 18.961 83.6278 19.387C84.3118 19.813 84.8548 20.386 85.2568 21.106C85.6648 21.826 85.8688 22.624 85.8688 23.5C85.8688 24.154 85.7518 24.766 85.5178 25.336C85.2838 25.906 84.9598 26.41 84.5458 26.848C84.1378 27.28 83.6608 27.619 83.1148 27.865C82.5748 28.111 81.9928 28.234 81.3688 28.234ZM81.3688 26.362C81.8668 26.362 82.3138 26.23 82.7098 25.966C83.1058 25.702 83.4178 25.354 83.6458 24.922C83.8798 24.484 83.9968 24.01 83.9968 23.5C83.9968 22.978 83.8768 22.498 83.6368 22.06C83.4028 21.622 83.0878 21.274 82.6918 21.016C82.2958 20.752 81.8548 20.62 81.3688 20.62C80.8768 20.62 80.4298 20.752 80.0278 21.016C79.6318 21.28 79.3168 21.631 79.0828 22.069C78.8548 22.507 78.7408 22.984 78.7408 23.5C78.7408 24.034 78.8608 24.517 79.1008 24.949C79.3408 25.381 79.6588 25.726 80.0548 25.984C80.4568 26.236 80.8948 26.362 81.3688 26.362ZM86.6921 28L89.1311 15.4H90.6431L93.8741 23.887L97.0871 15.4H98.5991L101.047 28H99.1391L97.5101 19.567L94.4951 27.523H93.2351L90.2291 19.567L88.6001 28H86.6921ZM106.387 28.234C105.559 28.234 104.803 28.021 104.119 27.595C103.441 27.169 102.898 26.599 102.49 25.885C102.088 25.165 101.887 24.37 101.887 23.5C101.887 22.84 102.004 22.225 102.238 21.655C102.472 21.079 102.793 20.575 103.201 20.143C103.615 19.705 104.095 19.363 104.641 19.117C105.187 18.871 105.769 18.748 106.387 18.748C107.077 18.748 107.71 18.892 108.286 19.18C108.862 19.462 109.354 19.855 109.762 20.359C110.17 20.857 110.47 21.433 110.662 22.087C110.854 22.735 110.911 23.425 110.833 24.157H103.894C103.972 24.571 104.122 24.946 104.344 25.282C104.572 25.612 104.86 25.873 105.208 26.065C105.562 26.257 105.955 26.356 106.387 26.362C106.843 26.362 107.257 26.248 107.629 26.02C108.007 25.792 108.316 25.477 108.556 25.075L110.455 25.516C110.095 26.314 109.552 26.968 108.826 27.478C108.1 27.982 107.287 28.234 106.387 28.234ZM103.831 22.726H108.943C108.883 22.294 108.73 21.904 108.484 21.556C108.244 21.202 107.941 20.923 107.575 20.719C107.215 20.509 106.819 20.404 106.387 20.404C105.961 20.404 105.565 20.506 105.199 20.71C104.839 20.914 104.539 21.193 104.299 21.547C104.065 21.895 103.909 22.288 103.831 22.726ZM119.407 14.5H121.279V28H119.407V26.677C119.113 27.145 118.729 27.523 118.255 27.811C117.781 28.093 117.226 28.234 116.59 28.234C115.936 28.234 115.324 28.111 114.754 27.865C114.184 27.619 113.68 27.28 113.242 26.848C112.81 26.41 112.471 25.906 112.225 25.336C111.979 24.766 111.856 24.154 111.856 23.5C111.856 22.846 111.979 22.234 112.225 21.664C112.471 21.088 112.81 20.584 113.242 20.152C113.68 19.714 114.184 19.372 114.754 19.126C115.324 18.88 115.936 18.757 116.59 18.757C117.226 18.757 117.781 18.901 118.255 19.189C118.729 19.471 119.113 19.843 119.407 20.305V14.5ZM116.608 26.425C117.136 26.425 117.598 26.296 117.994 26.038C118.39 25.774 118.696 25.42 118.912 24.976C119.134 24.532 119.245 24.04 119.245 23.5C119.245 22.954 119.134 22.459 118.912 22.015C118.69 21.571 118.381 21.22 117.985 20.962C117.595 20.698 117.136 20.566 116.608 20.566C116.086 20.566 115.609 20.698 115.177 20.962C114.751 21.226 114.409 21.58 114.151 22.024C113.899 22.468 113.773 22.96 113.773 23.5C113.773 24.046 113.902 24.541 114.16 24.985C114.424 25.423 114.769 25.774 115.195 26.038C115.627 26.296 116.098 26.425 116.608 26.425Z" fill="#004074"/>
</g>
<defs>
<filter id="filter0_dd_5709_22" x="10" y="0" width="141" height="84" filterUnits="userSpaceOnUse" color-interpolation-filters="sRGB">
<feFlood flood-opacity="0" result="BackgroundImageFix"/>
<feColorMatrix in="SourceAlpha" type="matrix" values="0 0 0 0 0 0 0 0 0 0 0 0 0 0 0 0 0 0 127 0" result="hardAlpha"/>
<feMorphology radius="6" operator="erode" in="SourceAlpha" result="effect1_dropShadow_5709_22"/>
<feOffset dy="8"/>
<feGaussianBlur stdDeviation="5"/>
<feComposite in2="hardAlpha" operator="out"/>
<feColorMatrix type="matrix" values="0 0 0 0 1 0 0 0 0 1 0 0 0 0 1 0 0 0 0.1 0"/>
<feBlend mode="normal" in2="BackgroundImageFix" result="effect1_dropShadow_5709_22"/>
<feColorMatrix in="SourceAlpha" type="matrix" values="0 0 0 0 0 0 0 0 0 0 0 0 0 0 0 0 0 0 127 0" result="hardAlpha"/>
<feMorphology radius="5" operator="erode" in="SourceAlpha" result="effect2_dropShadow_5709_22"/>
<feOffset dy="20"/>
<feGaussianBlur stdDeviation="12.5"/>
<feComposite in2="hardAlpha" operator="out"/>
<feColorMatrix type="matrix" values="0 0 0 0 1 0 0 0 0 1 0 0 0 0 1 0 0 0 0.1 0"/>
<feBlend mode="normal" in2="effect1_dropShadow_5709_22" result="effect2_dropShadow_5709_22"/>
<feBlend mode="normal" in="SourceGraphic" in2="effect2_dropShadow_5709_22" result="shape"/>
</filter>
<clipPath id="clip0_5709_22">
<rect width="30" height="30" fill="white" transform="translate(0 7)"/>
</clipPath>
</defs>
</svg>
